<svg height="256" viewBox="0 0 256 256" width="256" xmlns="http://www.w3.org/2000/svg"><path d="m170.3 175.7-14.6-24.1c2.7-9.3 4.8-19.8 4.8-30 0-1.3 0-2.7-.1-4-1.5-27-11.9-36.6-19.7-44.4-3.7-3.7-6.5-6.8-8.5-11.3a.3.3 0 0 0 -.1-.2 9.1 9.1 0 0 0 3.3-1.1 4.8 4.8 0 0 0 2.2-4.1l-.5-1c-.6-.6-2.5-1-5.5-1.1a18.3 18.3 0 0 1 .1-5.2c.1-1 .1-1 1.4-1.1h.3a1.8 1.8 0 0 0 1.6-1c.5-1-.2-2.2-.6-2.9v-.3l-.2-.4c-2.1-5.2-3.2-8.8-3.2-10.8s-.6-3.3-1.1-3.5a1.1 1.1 0 0 0 -1.3 0c-.2.1-1.1.6-1.1 3.5 0 1.3-.5 4.3-3.2 10.9v.3l-.2.3a4.4 4.4 0 0 0 -.7 2.1 1.1 1.1 0 0 0 .2.8 1.8 1.8 0 0 0 1.6 1h.2c1.4.1 1.4.1 1.5 1.1s.2 2.2.2 3.1a7.5 7.5 0 0 1 -.2 2.1c-3 .1-4.8.5-5.5 1.1l-.4 1a4.6 4.6 0 0 0 2.2 4.1 8.5 8.5 0 0 0 3.3 1.1l-.2.2c-1.9 4.5-5.1 7.8-8.8 11.5-7.8 7.7-18.2 17.4-19.7 44.2-.1 1.3-.1 2.7-.1 4 0 10.2 2.1 20.7 4.8 30l-14.8 24.1-8.9 51.4h10.1l9.3-32.6 15.7-13.2.6.3 1.7.5c.3 1.7.6 3.4.8 4.4s.5 2.8 7.9 3.3v37.3h8.2v-37.2c7.7-.5 8.1-2.5 8.3-3.3l.8-4.5 1.7-.5.3-.2 15.6 13.1 9.3 32.6h10.1z" fill="#b4fff4"/></svg>