<svg height="256" viewBox="0 0 256 256" width="256" xmlns="http://www.w3.org/2000/svg"><path d="m165.1 169.8-12.8-21.2c2.4-8.1 4.3-17.3 4.3-26.2 0-1.2-.1-2.3-.1-3.5-1.4-23.6-10.5-32-17.3-38.8-3.2-3.2-5.6-6-7.4-9.9a.3.3 0 0 0 -.1-.2 7 7 0 0 0 2.9-1 4.1 4.1 0 0 0 1.9-3.6l-.4-.8c-.5-.6-2.2-.9-4.8-1a14.4 14.4 0 0 1 .1-4.6c.1-.8.1-.8 1.2-.9h.2c.9-.1 1.3-.5 1.4-.8a2.6 2.6 0 0 0 -.5-2.6s-.1-.3-.1-.2v-.5c-1.9-4.6-2.8-7.7-2.8-9.5s-.5-2.8-1-3.1a1.1 1.1 0 0 0 -1.1 0c-.2.2-1 .6-1 3.1s-.5 3.8-2.8 9.6v.5a3.3 3.3 0 0 0 -.7 1.8 2.4 2.4 0 0 0 .2.8c.1.3.5.7 1.4.8h.2c1.2.1 1.2.1 1.3.9s.2 2 .2 2.8a11 11 0 0 1 -.2 1.8c-2.6.1-4.3.4-4.8 1l-.4.8a4.1 4.1 0 0 0 1.9 3.6 7.6 7.6 0 0 0 2.9 1 .3.3 0 0 0 -.1.2c-1.7 3.9-4.5 6.7-7.8 10-6.8 6.8-15.9 15.2-17.2 38.7 0 1.2-.1 2.3-.1 3.5 0 8.9 1.9 18.1 4.3 26.2l-13.1 21.3-7.8 44.9h8.8l8.1-28.5 13.8-11.5.5.2 1.5.5c.2 1.4.5 2.9.7 3.8s.5 2.5 6.9 2.9v32.6h7.2v-32.6c6.8-.4 7.1-2.2 7.2-2.9s.5-2.4.7-3.8l1.5-.5.3-.2 13.7 11.5 8.1 28.5h8.8z" fill="#b4fff4"/></svg>