<svg height="256" viewBox="0 0 256 256" width="256" xmlns="http://www.w3.org/2000/svg"><path d="m174.1 178.7-16.3-26.9c3.1-10.4 5.4-22 5.4-33.4 0-1.5 0-3-.1-4.5-1.7-30-13.3-40.7-21.9-49.4-4.1-4.1-7.3-7.6-9.5-12.6 0-.1-.1-.1-.1-.2a11.5 11.5 0 0 0 3.7-1.3 5 5 0 0 0 2.4-4.5l-.5-1.1c-.7-.7-2.8-1.1-6.1-1.3a19 19 0 0 1 .1-5.8c.1-1 .1-1 1.6-1.2h.2a2.1 2.1 0 0 0 1.8-1.1c.6-1.2-.2-2.5-.6-3.3l-.2-.3-.2-.5c-2.3-5.7-3.5-9.8-3.5-12s-.7-3.6-1.2-3.9a1.4 1.4 0 0 0 -1.5 0c-.3.2-1.2.7-1.2 3.9 0 1.5-.6 4.8-3.6 12.1v.4l-.2.3a5.7 5.7 0 0 0 -.8 2.4 1.5 1.5 0 0 0 .2.9 2.1 2.1 0 0 0 1.8 1.1h.3c1.4.2 1.4.2 1.6 1.2s.2 2.5.2 3.6a8.2 8.2 0 0 1 -.2 2.2c-3.3.2-5.4.6-6.1 1.3l-.5 1.1a5.2 5.2 0 0 0 2.4 4.5 11.5 11.5 0 0 0 3.7 1.3c0 .1-.1.1-.1.2-2.2 5.1-5.8 8.7-9.9 12.8-8.7 8.6-20.2 19.4-21.9 49.2-.1 1.5-.1 3-.1 4.5 0 11.4 2.3 23 5.4 33.4l-16.4 26.9-9.9 57.2h11.1l10.5-36.4 17.4-14.6.7.3 1.9.6c.3 1.8.6 3.7.9 4.9s.6 3.1 8.8 3.7v41.5h9.1v-41.5c8.6-.5 9.1-2.8 9.2-3.7s.6-3.1.9-4.9l1.9-.6.4-.2 17.4 14.5 10.4 36.4h11.1z" fill="#b4fff4"/></svg>